<svg xmlns="http://www.w3.org/2000/svg" xmlns:xlink="http://www.w3.org/1999/xlink" viewBox="0 0 440.62 504"><defs><style>.a{fill:url(#a);}.b{fill:url(#b);}.c{fill:#8dc8e3;}</style><linearGradient id="a" x1="379.69" y1="600" x2="820.31" y2="600" gradientUnits="userSpaceOnUse"><stop offset="0" stop-color="#2e65ae"/><stop offset="0.04" stop-color="#eb621c"/><stop offset="1" stop-color="#e72987"/></linearGradient><linearGradient id="b" x1="379.69" y1="600" x2="820.31" y2="600" gradientUnits="userSpaceOnUse"><stop offset="0" stop-color="#1d2133"/><stop offset="1" stop-color="#1d2133"/></linearGradient></defs><title>logo_light</title><path class="a" d="M812.58,468.34,607.73,350.07a15.47,15.47,0,0,0-15.46,0L387.42,468.34a15.46,15.46,0,0,0-7.73,13.39V718.27a15.48,15.48,0,0,0,7.73,13.39L592.27,849.93a15.47,15.47,0,0,0,15.46,0L812.58,731.66a15.48,15.48,0,0,0,7.73-13.39V481.73A15.46,15.46,0,0,0,812.58,468.34ZM752,669.89h0a25,25,0,0,1-12.48-21.61V542.79a40.4,40.4,0,0,0-20.2-35l-91.36-52.75a24.94,24.94,0,0,1-12.48-21.61h0a25,25,0,0,1,37.43-21.61l124,71.61a25,25,0,0,1,12.48,21.61V648.28A25,25,0,0,1,752,669.89ZM572.07,455.05l-83.63,48.29a25,25,0,0,1-24.95,0h0a25,25,0,0,1,0-43.22l83.62-48.28a25,25,0,0,1,37.43,21.61h0A24.93,24.93,0,0,1,572.07,455.05ZM528.85,576.77,655.69,650a25,25,0,0,1,0,43.22l-43.22,24.95a24.93,24.93,0,0,1-25,0L503.9,669.89a25,25,0,0,1-12.48-21.61v-49.9A25,25,0,0,1,528.85,576.77Zm99.08,168.17,83.63-48.28a24.93,24.93,0,0,1,25,0h0a25,25,0,0,1,0,43.22l-83.63,48.28a25,25,0,0,1-37.43-21.61h0A25,25,0,0,1,627.93,744.94Z" transform="translate(-379.69 -348)"/><path class="b" d="M812.58,468.34,607.73,350.07a15.47,15.47,0,0,0-15.46,0L387.42,468.34a15.46,15.46,0,0,0-7.73,13.39V718.27a15.48,15.48,0,0,0,7.73,13.39L592.27,849.93a15.47,15.47,0,0,0,15.46,0L812.58,731.66a15.48,15.48,0,0,0,7.73-13.39V481.73A15.46,15.46,0,0,0,812.58,468.34ZM752,669.89h0a25,25,0,0,1-12.48-21.61V542.79a40.4,40.4,0,0,0-20.2-35l-91.36-52.75a24.94,24.94,0,0,1-12.48-21.61h0a25,25,0,0,1,37.43-21.61l124,71.61a25,25,0,0,1,12.48,21.61V648.28A25,25,0,0,1,752,669.89Zm-80.82-46.66L544.31,550a25,25,0,0,1,0-43.23l43.21-24.95a25,25,0,0,1,25,0L696.1,530.1a25,25,0,0,1,12.48,21.62v49.9A25,25,0,0,1,671.15,623.23ZM572.07,455.05l-83.63,48.29a25,25,0,0,1-24.95,0h0a25,25,0,0,1,0-43.22l83.62-48.28a25,25,0,0,1,37.43,21.61h0A24.93,24.93,0,0,1,572.07,455.05ZM528.85,576.77,655.69,650a25,25,0,0,1,0,43.22l-43.22,24.95a24.93,24.93,0,0,1-25,0L503.9,669.89a25,25,0,0,1-12.48-21.61v-49.9A25,25,0,0,1,528.85,576.77Zm99.08,168.17,83.63-48.28a24.93,24.93,0,0,1,25,0h0a25,25,0,0,1,0,43.22l-83.63,48.28a25,25,0,0,1-37.43-21.61h0A25,25,0,0,1,627.93,744.94ZM448,530.11h0a24.94,24.94,0,0,1,12.48,21.61V657.2a40.42,40.42,0,0,0,20.2,35l91.36,52.74a25,25,0,0,1,12.47,21.61h0a25,25,0,0,1-37.43,21.61l-124-71.61a25,25,0,0,1-12.48-21.61V551.72A25,25,0,0,1,448,530.11Z" transform="translate(-379.69 -348)"/><path class="c" d="M587.52,481.82l-43.21,24.95a25,25,0,0,0,0,43.23l126.84,73.23a25,25,0,0,0,37.43-21.61v-49.9A25,25,0,0,0,696.1,530.1l-83.63-48.28A25,25,0,0,0,587.52,481.82Z" transform="translate(-379.69 -348)"/><path class="c" d="M423.08,716.55l124,71.61a25,25,0,0,0,37.43-21.61h0a25,25,0,0,0-12.47-21.61L480.71,692.2a40.42,40.42,0,0,1-20.2-35V551.72a25,25,0,0,0-49.91,0V694.94A25,25,0,0,0,423.08,716.55Z" transform="translate(-379.69 -348)"/></svg>