<svg xmlns="http://www.w3.org/2000/svg" viewBox="0 0 782.96 467.6"><defs><style>.a{fill:#8dc8e3;}.b{fill:#1e2233;}.c{fill:#fff;}</style></defs><title>Sans titre - 3</title><path class="a" d="M757.68,366.2c-2.91,0-5.79.11-8.67.22a4.06,4.06,0,0,0-1.09-.22H409.7a32.63,32.63,0,1,0,0,65.25H595.75a234.32,234.32,0,0,0-32.09,38.06H328.14a32.62,32.62,0,1,0,0,65.24h205a233.69,233.69,0,0,0-7.67,38.06H431.44a32.63,32.63,0,0,0,0,65.25H527a231.79,231.79,0,0,0,9.61,38.06H241.14a32.63,32.63,0,0,0,0,65.25H571.49a234.43,234.43,0,0,0,24.26,27.18H426a32.63,32.63,0,1,0,0,65.25H757.68c129.13,0,233.8-104.67,233.8-233.8S886.81,366.2,757.68,366.2Z" transform="translate(-208.52 -366.2)"/><circle class="b" cx="549.16" cy="233.8" r="181.92"/><rect class="c" x="415.07" y="191.35" width="117.92" height="28.3" rx="2.96"/><rect class="c" x="497.61" y="113.53" width="82.54" height="28.3" rx="2.96"/><rect class="c" x="459.87" y="321.06" width="82.54" height="28.3" rx="2.96"/><rect class="c" x="566" y="257.39" width="117.92" height="28.3" rx="2.96"/></svg>